<svg width="17" height="17" viewBox="0 0 17 17" fill="none" xmlns="http://www.w3.org/2000/svg">
<path fill-rule="evenodd" clip-rule="evenodd" d="M4.25 9.5625H5.3125V10.625H4.25C2.65625 10.625 1.0625 8.82937 1.0625 6.90625C1.0625 4.98313 2.70937 3.1875 4.25 3.1875H8.5C10.0406 3.1875 11.6875 4.98313 11.6875 6.90625C11.6875 8.40438 10.7206 9.79625 9.5625 10.3594V9.12687C10.1788 8.64875 10.625 7.7775 10.625 6.90625C10.625 5.54625 9.54125 4.25 8.5 4.25H4.25C3.20875 4.25 2.125 5.54625 2.125 6.90625C2.125 8.26625 3.1875 9.5625 4.25 9.5625ZM13.8125 6.375H12.75V7.4375H13.8125C14.875 7.4375 15.9375 8.73375 15.9375 10.0938C15.9375 11.4537 14.8538 12.75 13.8125 12.75H9.5625C8.52125 12.75 7.4375 11.4537 7.4375 10.0938C7.4375 9.21187 7.88375 8.35125 8.5 7.87313V6.64062C7.34188 7.20375 6.375 8.59562 6.375 10.0938C6.375 12.0169 8.02187 13.8125 9.5625 13.8125H13.8125C15.3531 13.8125 17 12.0169 17 10.0938C17 8.17063 15.4062 6.375 13.8125 6.375Z" fill="white"/>
</svg>
