<svg width="17" height="17" viewBox="0 0 17 17" fill="none" xmlns="http://www.w3.org/2000/svg">
<path fill-rule="evenodd" clip-rule="evenodd" d="M8.5 1.0625C4.39875 1.0625 1.0625 4.39875 1.0625 8.5C1.0625 12.6012 4.39875 15.9375 8.5 15.9375C9.01 15.9375 9.49875 15.8844 9.96625 15.7887C9.78563 15.7037 9.75375 15.0131 9.945 14.6306C10.1469 14.195 10.8056 13.09 10.1575 12.7181C9.50938 12.3463 9.69 12.1869 9.29688 11.7513C8.90375 11.3156 9.06312 11.2519 9.03125 11.135C8.94625 10.7737 9.41375 10.1894 9.44563 10.1362C9.46688 10.0725 9.46688 9.84937 9.44563 9.78563C9.44563 9.70063 9.15875 9.55187 9.08438 9.54125C9.02063 9.54125 8.9675 9.65812 8.87187 9.67937C8.77625 9.70062 8.34063 9.41375 8.245 9.32875C8.14938 9.24375 8.09625 9.08437 7.95812 8.9675C7.82 8.82937 7.80937 8.93563 7.6075 8.85063C7.40562 8.76562 6.7575 8.52125 6.2475 8.34062C5.7375 8.13875 5.695 7.84125 5.695 7.63938C5.67375 7.42688 5.37625 7.14 5.24875 6.9275C5.1 6.715 5.07875 6.42813 5.03625 6.49188C4.99375 6.55562 5.30188 7.32063 5.24875 7.3525C5.19562 7.37375 5.07875 7.14 4.93 6.94875C4.78125 6.74687 5.07875 6.85313 4.61125 5.93937C4.14375 5.02563 4.76 4.55812 4.79187 4.08C4.82375 3.60187 5.19562 4.26063 4.99375 3.94187C4.79188 3.62313 4.99375 2.99625 4.845 2.7625C4.70687 2.52875 3.91 3.02812 3.91 3.02812C3.93125 2.79437 4.64312 2.41187 5.1425 2.05062C5.64187 1.68937 5.97125 1.98687 6.375 2.10375C6.78937 2.24188 6.81063 2.19937 6.6725 2.05062C6.53438 1.9125 6.73625 1.87 7.055 1.9125C7.3525 1.96562 7.45875 2.34813 7.93687 2.295C8.43625 2.26313 7.99 2.39063 8.05375 2.52875C8.1175 2.66688 7.99 2.64563 7.65 2.8475C7.33125 3.06 7.67125 3.08125 8.23438 3.49563C8.7975 3.91 8.63812 3.23 8.56375 2.91125C8.48938 2.5925 8.97812 2.8475 8.97812 2.8475C9.32875 3.08125 9.265 2.86875 9.50937 2.9325C9.75375 2.99625 10.4762 3.6125 10.4762 3.6125C9.59437 4.08 10.1469 4.1225 10.2956 4.23938C10.4444 4.35625 9.99813 4.55813 9.99813 4.55813C9.8175 4.3775 9.79625 4.57937 9.67937 4.64312C9.5625 4.70687 9.65812 4.87688 9.65812 4.87688C9.06313 4.9725 9.19063 5.61 9.21187 5.75875C9.21187 5.9075 8.80813 6.14125 8.7125 6.375C8.61687 6.5875 8.97813 7.055 8.77625 7.07625C8.57438 7.10812 8.415 6.375 7.38437 6.64062C7.06562 6.72563 6.38563 7.07625 6.7575 7.78813C7.14 8.52125 7.735 7.58625 7.93687 7.6925C8.13875 7.79875 7.87312 8.25562 7.91562 8.27688C7.95812 8.29812 8.47875 8.29812 8.51063 8.925C8.5425 9.55187 9.32875 9.48812 9.48812 9.50937C9.66875 9.50937 10.2319 9.04187 10.3062 9.03125C10.37 8.99937 10.71 8.73375 11.4006 9.12687C12.1019 9.50938 12.4419 9.45625 12.6756 9.62625C12.9094 9.79625 12.7606 10.1256 12.9731 10.2425C13.1856 10.3594 14.0994 10.2106 14.3331 10.5719C14.5669 10.9331 13.3981 12.7925 13.0369 12.9944C12.6756 13.1962 12.5269 13.6744 12.1444 13.9719C11.7619 14.2694 11.2837 14.6519 10.795 14.9388C10.3594 15.1831 10.2956 15.64 10.0938 15.7887C13.43 15.045 15.9162 12.07 15.9162 8.52125C15.9162 4.42 12.58 1.08375 8.47875 1.08375L8.5 1.0625ZM10.2425 8.0325C10.1469 8.06437 9.945 8.26625 9.41375 7.9475C8.90375 7.62875 8.55312 7.70312 8.5 7.65C8.5 7.65 8.44688 7.53312 8.68062 7.50125C9.14812 7.44812 9.72188 7.93687 9.86 7.93687C9.99813 7.93687 10.0619 7.79875 10.2956 7.88375C10.5294 7.96875 10.3488 8.02187 10.2425 8.0325ZM7.79875 1.80625C7.74563 1.77438 7.83063 1.72125 7.89437 1.6575C7.92625 1.62562 7.91563 1.54062 7.9475 1.50875C8.06437 1.39187 8.59562 1.24313 8.5 1.54063C8.38312 1.8275 7.88375 1.85938 7.79875 1.80625ZM9.10563 2.75187C8.90375 2.73062 8.48938 2.69875 8.55313 2.60313C8.87188 2.30563 8.4575 2.19937 8.19187 2.19937C7.92625 2.17812 7.83062 2.02938 7.95812 1.9975C8.08562 1.96562 8.60625 2.01875 8.70188 2.0825C8.78688 2.14625 9.25437 2.34812 9.28625 2.48625C9.3075 2.62437 9.28625 2.75187 9.10563 2.75187ZM10.6675 2.69875C10.5188 2.79437 9.78563 2.26312 9.65812 2.14625C9.06313 1.63625 8.7125 1.81688 8.59562 1.71062C8.47875 1.60438 8.51062 1.50875 8.7125 1.34937C8.91437 1.19 9.44562 1.41313 9.775 1.445C10.0938 1.47688 10.4762 1.73187 10.4762 2.02937C10.4975 2.295 10.8269 2.56062 10.6781 2.69875H10.6675Z" fill="white"/>
</svg>
